<svg width="207" height="207" viewBox="0 0 207 207" fill="none" xmlns="http://www.w3.org/2000/svg">
<path fill-rule="evenodd" clip-rule="evenodd" d="M132.508 30.4641C135.379 27.5925 138.788 25.3147 142.54 23.7607C146.292 22.2066 150.313 21.4068 154.374 21.4068C158.435 21.4068 162.456 22.2066 166.208 23.7607C169.96 25.3147 173.369 27.5925 176.24 30.4641C179.112 33.3356 181.39 36.7446 182.944 40.4964C184.498 44.2482 185.298 48.2694 185.298 52.3303C185.298 56.3913 184.498 60.4124 182.944 64.1642C181.39 67.9161 179.112 71.3251 176.24 74.1966L166.571 83.8356C164.54 85.9406 163.417 88.7592 163.444 91.6844C163.471 94.6095 164.645 97.4071 166.715 99.4746C168.784 101.542 171.583 102.714 174.508 102.738C177.433 102.762 180.251 101.636 182.354 99.6031L192.008 89.9641C201.595 79.9032 206.868 66.4923 206.7 52.596C206.533 38.6997 200.938 25.4198 191.111 15.5929C181.284 5.76608 168.005 0.17136 154.108 0.00387129C140.212 -0.163617 126.801 5.1094 116.74 14.6966L77.3066 54.0856C67.3329 64.0706 61.7307 77.6064 61.7307 91.7193C61.7307 105.832 67.3329 119.368 77.3066 129.353C79.4097 131.386 82.2273 132.512 85.1525 132.488C88.0776 132.464 90.8763 131.292 92.9457 129.225C95.0152 127.157 96.1898 124.36 96.2166 121.434C96.2434 118.509 95.1202 115.691 93.089 113.586C87.2937 107.784 84.0385 99.9194 84.0385 91.7193C84.0385 83.5192 87.2937 75.6545 93.089 69.8531L132.508 30.4641ZM130.276 76.3683C128.166 74.342 125.344 73.2259 122.418 73.2605C119.492 73.2951 116.697 74.4777 114.635 76.5534C112.573 78.6291 111.409 81.4318 111.394 84.3576C111.379 87.2834 112.513 90.0982 114.554 92.1953C126.692 104.244 126.721 123.879 114.613 135.958L75.1348 175.332C72.2594 178.203 68.8466 180.48 65.0911 182.033C61.3357 183.585 57.3113 184.383 53.2476 184.38C49.1839 184.378 45.1605 183.574 41.4072 182.017C37.6539 180.459 34.2441 178.177 31.3726 175.302C25.5733 169.495 22.3184 161.622 22.324 153.415C22.3296 145.208 25.5952 137.339 31.4023 131.54L41.0265 121.916C42.9971 119.801 44.0699 117.004 44.019 114.113C43.968 111.223 42.7971 108.465 40.7531 106.421C38.7091 104.377 35.9515 103.207 33.0612 103.156C30.171 103.105 27.3738 104.177 25.259 106.148L15.62 115.772C5.62705 125.753 0.00837807 139.295 9.36187e-06 153.419C-0.00835934 167.543 5.59426 181.091 15.5753 191.084C25.5564 201.077 39.0984 206.696 53.2222 206.704C67.3459 206.713 80.8945 201.11 90.8875 191.129L130.366 151.755C135.324 146.807 139.256 140.928 141.936 134.455C144.615 127.983 145.99 121.045 145.98 114.04C145.97 107.035 144.577 100.101 141.879 93.6359C139.182 87.171 135.234 81.3028 130.262 76.3683H130.276Z" fill="#1E335F"/>
</svg>
