<svg width="360" height="364" viewBox="0 0 360 364" fill="none" xmlns="http://www.w3.org/2000/svg">
<g filter="url(#filter0_d_105_30)">
<path d="M327.695 174.417C317.988 157.582 264.602 73.1033 173.905 75.8333C90.0333 77.9567 41.5 151.667 28.305 174.417C26.9738 176.722 26.2731 179.338 26.2731 182C26.2731 184.662 26.9738 187.278 28.305 189.583C37.86 206.115 88.9717 288.167 178.303 288.167H182.095C265.967 286.043 314.652 212.333 327.695 189.583C329.026 187.278 329.727 184.662 329.727 182C329.727 179.338 329.026 176.722 327.695 174.417ZM181.337 257.833C115.968 259.35 73.35 203.385 60.0033 182C75.17 157.582 114.755 107.683 175.422 106.167C240.487 104.498 283.257 160.615 296.755 182C281.133 206.418 242.003 256.317 181.337 257.833Z" fill="#1E335F"/>
<path d="M178 128.917C167.501 128.917 157.238 132.03 148.508 137.863C139.779 143.696 132.975 151.986 128.957 161.686C124.94 171.386 123.888 182.059 125.937 192.356C127.985 202.653 133.041 212.112 140.464 219.536C147.888 226.959 157.347 232.015 167.644 234.063C177.941 236.112 188.614 235.06 198.314 231.043C208.014 227.025 216.304 220.221 222.137 211.492C227.97 202.762 231.083 192.499 231.083 182C231.083 167.921 225.491 154.419 215.536 144.464C205.581 134.509 192.079 128.917 178 128.917ZM178 204.75C173.5 204.75 169.102 203.416 165.361 200.916C161.62 198.416 158.704 194.863 156.982 190.706C155.26 186.549 154.809 181.975 155.687 177.562C156.565 173.149 158.732 169.095 161.913 165.913C165.095 162.732 169.149 160.565 173.562 159.687C177.975 158.809 182.549 159.26 186.706 160.982C190.863 162.704 194.416 165.62 196.916 169.361C199.416 173.102 200.75 177.5 200.75 182C200.75 188.034 198.353 193.82 194.087 198.087C189.82 202.353 184.034 204.75 178 204.75Z" fill="#1E335F"/>
</g>
<defs>
<filter id="filter0_d_105_30" x="-8" y="0" width="372" height="372" filterUnits="userSpaceOnUse" color-interpolation-filters="sRGB">
<feFlood flood-opacity="0" result="BackgroundImageFix"/>
<feColorMatrix in="SourceAlpha" type="matrix" values="0 0 0 0 0 0 0 0 0 0 0 0 0 0 0 0 0 0 127 0" result="hardAlpha"/>
<feOffset dy="4"/>
<feGaussianBlur stdDeviation="2"/>
<feComposite in2="hardAlpha" operator="out"/>
<feColorMatrix type="matrix" values="0 0 0 0 0 0 0 0 0 0 0 0 0 0 0 0 0 0 0.25 0"/>
<feBlend mode="normal" in2="BackgroundImageFix" result="effect1_dropShadow_105_30"/>
<feBlend mode="normal" in="SourceGraphic" in2="effect1_dropShadow_105_30" result="shape"/>
</filter>
</defs>
</svg>
