<svg width="30" height="30" viewBox="0 0 30 30" fill="none" xmlns="http://www.w3.org/2000/svg">
<path d="M23.75 11.25C24.0815 11.25 24.3995 11.3817 24.6339 11.6161C24.8683 11.8505 25 12.1685 25 12.5C25.0003 14.9356 24.1116 17.2877 22.5008 19.1146C20.89 20.9415 18.6678 22.1177 16.2513 22.4225L16.25 25H20C20.3315 25 20.6495 25.1317 20.8839 25.3661C21.1183 25.6005 21.25 25.9185 21.25 26.25C21.25 26.5815 21.1183 26.8995 20.8839 27.1339C20.6495 27.3683 20.3315 27.5 20 27.5H10C9.66848 27.5 9.35054 27.3683 9.11612 27.1339C8.8817 26.8995 8.75 26.5815 8.75 26.25C8.75 25.9185 8.8817 25.6005 9.11612 25.3661C9.35054 25.1317 9.66848 25 10 25H13.75V22.4225C11.3333 22.118 9.11076 20.9419 7.49969 19.115C5.88862 17.288 4.99977 14.9358 5 12.5C5 12.1685 5.1317 11.8505 5.36612 11.6161C5.60054 11.3817 5.91848 11.25 6.25 11.25C6.58152 11.25 6.89946 11.3817 7.13388 11.6161C7.3683 11.8505 7.5 12.1685 7.5 12.5C7.5 14.4891 8.29018 16.3968 9.6967 17.8033C11.1032 19.2098 13.0109 20 15 20C16.9891 20 18.8968 19.2098 20.3033 17.8033C21.7098 16.3968 22.5 14.4891 22.5 12.5C22.5 12.1685 22.6317 11.8505 22.8661 11.6161C23.1005 11.3817 23.4185 11.25 23.75 11.25ZM15 1.25C16.3261 1.25 17.5979 1.77678 18.5355 2.71447C19.4732 3.65215 20 4.92392 20 6.25V12.5C20 13.8261 19.4732 15.0979 18.5355 16.0355C17.5979 16.9732 16.3261 17.5 15 17.5C13.6739 17.5 12.4021 16.9732 11.4645 16.0355C10.5268 15.0979 10 13.8261 10 12.5V6.25C10 4.92392 10.5268 3.65215 11.4645 2.71447C12.4021 1.77678 13.6739 1.25 15 1.25Z" fill="#FFBF55"/>
</svg>
