<svg width="86" height="86" viewBox="0 0 86 86" fill="none" xmlns="http://www.w3.org/2000/svg">
<path d="M27.6407 16.1249C30.0846 16.1249 32.4283 15.2755 34.1564 13.7635C35.8845 12.2515 36.8553 10.2008 36.8553 8.06247C36.8553 5.92417 35.8845 3.87345 34.1564 2.36144C32.4283 0.849436 30.0846 0 27.6407 0C25.1969 0 22.8531 0.849436 21.125 2.36144C19.397 3.87345 18.4262 5.92417 18.4262 8.06247C18.4262 10.2008 19.397 12.2515 21.125 13.7635C22.8531 15.2755 25.1969 16.1249 27.6407 16.1249ZM26.0282 21.4999C19.0405 21.4999 12.6671 24.9433 9.53796 30.419L0.649748 45.9729C-0.866814 48.6268 0.361793 51.8517 3.39492 53.1787C6.42804 54.5056 10.1139 53.4306 11.6304 50.7767L18.4262 38.9014V46.1576C18.4262 49.0131 19.7124 51.751 22.016 53.7666L36.8553 66.7337V80.6247C36.8553 83.5977 39.6004 85.9996 42.9983 85.9996C46.3962 85.9996 49.1414 83.5977 49.1414 80.6247V65.6083C49.1414 63.4751 48.1623 61.4259 46.4346 59.9142L36.8553 51.5158V35.8276L50.37 51.5998C52.4048 53.9681 56.2634 54.4552 58.9702 52.6748C61.677 50.8943 62.2337 47.5182 60.1988 45.1498L45.4555 27.9499C41.9809 23.8851 36.5097 21.4999 30.7122 21.4999H26.0282ZM18.4838 58.2513L12.4751 79.3145C11.6496 82.1868 13.6461 85.1094 16.948 85.8317C20.2499 86.5539 23.571 84.8071 24.3964 81.918L28.6198 67.1032L18.4838 58.2345V58.2513ZM80.3941 84.8407C81.3539 86.0668 83.2736 86.3692 84.675 85.5125C86.0764 84.6559 86.4219 82.993 85.4429 81.7668L62.752 53.0947C62.2145 53.733 61.581 54.3209 60.8131 54.8248C59.8533 55.4631 58.7974 55.8998 57.7032 56.1517L80.3941 84.8407Z" fill="white"/>
</svg>
